{
    "asset" : {
        "generator" : "Khronos glTF Blender I/O v1.0.5",
        "version" : "2.0"
    },
    "scene" : 0,
    "scenes" : [
        {
            "name" : "Scene",
            "nodes" : [
                0,
                1,
                2,
                3,
                4,
                5,
                6,
                7,
                8,
                9,
                10
            ]
        }
    ],
    "nodes" : [
        {
            "name" : "Light",
            "rotation" : [
                0.16907575726509094,
                0.7558803558349609,
                -0.27217137813568115,
                0.570947527885437
            ],
            "translation" : [
                4.076245307922363,
                5.903861999511719,
                -1.0054539442062378
            ]
        },
        {
            "name" : "Camera",
            "rotation" : [
                0.483536034822464,
                0.33687159419059753,
                -0.20870360732078552,
                0.7804827094078064
            ],
            "translation" : [
                7.358891487121582,
                4.958309173583984,
                6.925790786743164
            ]
        },
        {
            "mesh" : 0,
            "name" : "Cylinder",
            "translation" : [
                0,
                75,
                0
            ]
        },
        {
            "mesh" : 1,
            "name" : "Cone.001",
            "translation" : [
                0,
                18,
                0
            ]
        },
        {
            "mesh" : 2,
            "name" : "bottom",
            "rotation" : [
                0.9238795042037964,
                0,
                -0.3826834559440613,
                -4.038405876372053e-08
            ],
            "translation" : [
                0,
                155,
                0
            ]
        },
        {
            "mesh" : 3,
            "name" : "top",
            "rotation" : [
                0,
                0.3826834559440613,
                0,
                0.9238795042037964
            ],
            "translation" : [
                0,
                160,
                0
            ]
        },
        {
            "name" : "Light.001",
            "rotation" : [
                0.16907575726509094,
                0.7558803558349609,
                -0.27217137813568115,
                0.570947527885437
            ],
            "translation" : [
                -206.52670288085938,
                5.903837203979492,
                103.50288391113281
            ]
        },
        {
            "name" : "Camera.001",
            "rotation" : [
                0.483536034822464,
                0.33687159419059753,
                -0.20870360732078552,
                0.7804827094078064
            ],
            "translation" : [
                -203.2440643310547,
                4.958284378051758,
                111.43412780761719
            ]
        },
        {
            "mesh" : 4,
            "name" : "Cone.000",
            "translation" : [
                -210.6029510498047,
                17.999975204467773,
                104.50833892822266
            ]
        },
        {
            "mesh" : 5,
            "name" : "bottom.001",
            "rotation" : [
                0.9238795042037964,
                0,
                -0.3826834559440613,
                -4.038405876372053e-08
            ],
            "translation" : [
                -210.6029510498047,
                154.99996948242188,
                104.50833892822266
            ]
        },
        {
            "mesh" : 6,
            "name" : "top.001",
            "rotation" : [
                0,
                0.3826834559440613,
                0,
                0.9238795042037964
            ],
            "translation" : [
                -210.6029510498047,
                159.99996948242188,
                104.50833892822266
            ]
        }
    ],
    "meshes" : [
        {
            "name" : "Cylinder.001",
            "primitives" : [
                {
                    "attributes" : {
                        "POSITION" : 0,
                        "NORMAL" : 1,
                        "TEXCOORD_0" : 2
                    },
                    "indices" : 3
                }
            ]
        },
        {
            "name" : "Cone.004",
            "primitives" : [
                {
                    "attributes" : {
                        "POSITION" : 4,
                        "NORMAL" : 5,
                        "TEXCOORD_0" : 6
                    },
                    "indices" : 7
                }
            ]
        },
        {
            "name" : "Torus.001",
            "primitives" : [
                {
                    "attributes" : {
                        "POSITION" : 8,
                        "NORMAL" : 9,
                        "TEXCOORD_0" : 10
                    },
                    "indices" : 11
                }
            ]
        },
        {
            "name" : "Torus.002",
            "primitives" : [
                {
                    "attributes" : {
                        "POSITION" : 12,
                        "NORMAL" : 13,
                        "TEXCOORD_0" : 14
                    },
                    "indices" : 15
                }
            ]
        },
        {
            "name" : "Cone.000",
            "primitives" : [
                {
                    "attributes" : {
                        "POSITION" : 16,
                        "NORMAL" : 17,
                        "TEXCOORD_0" : 18
                    },
                    "indices" : 7
                }
            ]
        },
        {
            "name" : "Torus.000",
            "primitives" : [
                {
                    "attributes" : {
                        "POSITION" : 19,
                        "NORMAL" : 20,
                        "TEXCOORD_0" : 21
                    },
                    "indices" : 11
                }
            ]
        },
        {
            "name" : "Torus.003",
            "primitives" : [
                {
                    "attributes" : {
                        "POSITION" : 22,
                        "NORMAL" : 23,
                        "TEXCOORD_0" : 24
                    },
                    "indices" : 15
                }
            ]
        }
    ],
    "accessors" : [
        {
            "bufferView" : 0,
            "componentType" : 5126,
            "count" : 128,
            "max" : [
                21.5,
                75,
                21.5
            ],
            "min" : [
                -21.5,
                -75,
                -21.5
            ],
            "type" : "VEC3"
        },
        {
            "bufferView" : 1,
            "componentType" : 5126,
            "count" : 128,
            "type" : "VEC3"
        },
        {
            "bufferView" : 2,
            "componentType" : 5126,
            "count" : 128,
            "type" : "VEC2"
        },
        {
            "bufferView" : 3,
            "componentType" : 5123,
            "count" : 192,
            "type" : "SCALAR"
        },
        {
            "bufferView" : 4,
            "componentType" : 5126,
            "count" : 11060,
            "max" : [
                52,
                31,
                52
            ],
            "min" : [
                -52,
                -18,
                -52
            ],
            "type" : "VEC3"
        },
        {
            "bufferView" : 5,
            "componentType" : 5126,
            "count" : 11060,
            "type" : "VEC3"
        },
        {
            "bufferView" : 6,
            "componentType" : 5126,
            "count" : 11060,
            "type" : "VEC2"
        },
        {
            "bufferView" : 7,
            "componentType" : 5123,
            "count" : 19044,
            "type" : "SCALAR"
        },
        {
            "bufferView" : 8,
            "componentType" : 5126,
            "count" : 1220,
            "max" : [
                95.5,
                40,
                95.5
            ],
            "min" : [
                -95.5,
                -1.9073486328125e-06,
                -95.5
            ],
            "type" : "VEC3"
        },
        {
            "bufferView" : 9,
            "componentType" : 5126,
            "count" : 1220,
            "type" : "VEC3"
        },
        {
            "bufferView" : 10,
            "componentType" : 5126,
            "count" : 1220,
            "type" : "VEC2"
        },
        {
            "bufferView" : 11,
            "componentType" : 5123,
            "count" : 1920,
            "type" : "SCALAR"
        },
        {
            "bufferView" : 12,
            "componentType" : 5126,
            "count" : 1092,
            "max" : [
                95.5,
                30,
                95.5
            ],
            "min" : [
                -95.5,
                -2.384185791015625e-07,
                -95.5
            ],
            "type" : "VEC3"
        },
        {
            "bufferView" : 13,
            "componentType" : 5126,
            "count" : 1092,
            "type" : "VEC3"
        },
        {
            "bufferView" : 14,
            "componentType" : 5126,
            "count" : 1092,
            "type" : "VEC2"
        },
        {
            "bufferView" : 15,
            "componentType" : 5123,
            "count" : 1728,
            "type" : "SCALAR"
        },
        {
            "bufferView" : 16,
            "componentType" : 5126,
            "count" : 11060,
            "max" : [
                52,
                31,
                52
            ],
            "min" : [
                -52,
                -18,
                -52
            ],
            "type" : "VEC3"
        },
        {
            "bufferView" : 17,
            "componentType" : 5126,
            "count" : 11060,
            "type" : "VEC3"
        },
        {
            "bufferView" : 18,
            "componentType" : 5126,
            "count" : 11060,
            "type" : "VEC2"
        },
        {
            "bufferView" : 19,
            "componentType" : 5126,
            "count" : 1220,
            "max" : [
                95.5,
                40,
                95.5
            ],
            "min" : [
                -95.5,
                -1.9073486328125e-06,
                -95.5
            ],
            "type" : "VEC3"
        },
        {
            "bufferView" : 20,
            "componentType" : 5126,
            "count" : 1220,
            "type" : "VEC3"
        },
        {
            "bufferView" : 21,
            "componentType" : 5126,
            "count" : 1220,
            "type" : "VEC2"
        },
        {
            "bufferView" : 22,
            "componentType" : 5126,
            "count" : 1092,
            "max" : [
                95.5,
                30,
                95.5
            ],
            "min" : [
                -95.5,
                -2.384185791015625e-07,
                -95.5
            ],
            "type" : "VEC3"
        },
        {
            "bufferView" : 23,
            "componentType" : 5126,
            "count" : 1092,
            "type" : "VEC3"
        },
        {
            "bufferView" : 24,
            "componentType" : 5126,
            "count" : 1092,
            "type" : "VEC2"
        }
    ],
    "bufferViews" : [
        {
            "buffer" : 0,
            "byteLength" : 1536,
            "byteOffset" : 0
        },
        {
            "buffer" : 0,
            "byteLength" : 1536,
            "byteOffset" : 1536
        },
        {
            "buffer" : 0,
            "byteLength" : 1024,
            "byteOffset" : 3072
        },
        {
            "buffer" : 0,
            "byteLength" : 384,
            "byteOffset" : 4096
        },
        {
            "buffer" : 0,
            "byteLength" : 132720,
            "byteOffset" : 4480
        },
        {
            "buffer" : 0,
            "byteLength" : 132720,
            "byteOffset" : 137200
        },
        {
            "buffer" : 0,
            "byteLength" : 88480,
            "byteOffset" : 269920
        },
        {
            "buffer" : 0,
            "byteLength" : 38088,
            "byteOffset" : 358400
        },
        {
            "buffer" : 0,
            "byteLength" : 14640,
            "byteOffset" : 396488
        },
        {
            "buffer" : 0,
            "byteLength" : 14640,
            "byteOffset" : 411128
        },
        {
            "buffer" : 0,
            "byteLength" : 9760,
            "byteOffset" : 425768
        },
        {
            "buffer" : 0,
            "byteLength" : 3840,
            "byteOffset" : 435528
        },
        {
            "buffer" : 0,
            "byteLength" : 13104,
            "byteOffset" : 439368
        },
        {
            "buffer" : 0,
            "byteLength" : 13104,
            "byteOffset" : 452472
        },
        {
            "buffer" : 0,
            "byteLength" : 8736,
            "byteOffset" : 465576
        },
        {
            "buffer" : 0,
            "byteLength" : 3456,
            "byteOffset" : 474312
        },
        {
            "buffer" : 0,
            "byteLength" : 132720,
            "byteOffset" : 477768
        },
        {
            "buffer" : 0,
            "byteLength" : 132720,
            "byteOffset" : 610488
        },
        {
            "buffer" : 0,
            "byteLength" : 88480,
            "byteOffset" : 743208
        },
        {
            "buffer" : 0,
            "byteLength" : 14640,
            "byteOffset" : 831688
        },
        {
            "buffer" : 0,
            "byteLength" : 14640,
            "byteOffset" : 846328
        },
        {
            "buffer" : 0,
            "byteLength" : 9760,
            "byteOffset" : 860968
        },
        {
            "buffer" : 0,
            "byteLength" : 13104,
            "byteOffset" : 870728
        },
        {
            "buffer" : 0,
            "byteLength" : 13104,
            "byteOffset" : 883832
        },
        {
            "buffer" : 0,
            "byteLength" : 8736,
            "byteOffset" : 896936
        }
    ],
    "buffers" : [
        {
            "byteLength" : 905672,
            "uri" : "data:application/octet-stream;base64,"
        }
    ]
}
